<?xml version="1.0" standalone="no"?>
<!DOCTYPE svg PUBLIC "-//W3C//DTD SVG 20010904//EN"
 "http://www.w3.org/TR/2001/REC-SVG-20010904/DTD/svg10.dtd">
<svg version="1.0" xmlns="http://www.w3.org/2000/svg"
 width="700.000000pt" height="700.000000pt" viewBox="0 0 700.000000 700.000000"
 preserveAspectRatio="xMidYMid meet">
<metadata>
Created by potrace 1.14, written by Peter Selinger 2001-2017
</metadata>
<g transform="translate(0.000000,700.000000) scale(0.100000,-0.100000)"
fill="#000000" stroke="none">
<path d="M2170 6989 c0 -5 -12 -7 -26 -5 -14 3 -33 1 -42 -4 -10 -4 -44 -14
-77 -21 -33 -7 -66 -17 -72 -22 -7 -5 -13 -6 -13 -2 0 4 -6 2 -13 -4 -8 -6
-17 -8 -20 -4 -4 3 -7 1 -7 -6 0 -7 -4 -9 -10 -6 -5 3 -10 1 -10 -5 0 -6 -4
-9 -8 -6 -5 3 -23 -4 -41 -15 -18 -11 -36 -17 -41 -14 -4 3 -10 -2 -14 -10 -3
-8 -12 -15 -21 -15 -8 0 -15 -5 -15 -11 0 -5 -4 -8 -8 -5 -5 3 -21 -6 -37 -20
-15 -13 -34 -24 -40 -24 -7 0 -16 -7 -19 -16 -4 -9 -9 -14 -12 -11 -4 3 -20
-9 -37 -28 -16 -19 -34 -32 -39 -29 -4 3 -8 -2 -8 -10 0 -9 -3 -15 -7 -14 -11
4 -62 -49 -55 -56 3 -3 -2 -6 -11 -6 -10 0 -17 -6 -17 -13 0 -7 -9 -19 -20
-27 -11 -8 -20 -19 -20 -24 0 -5 -10 -18 -23 -30 -24 -23 -26 -25 -34 -56 -3
-11 -9 -17 -14 -14 -5 2 -11 -7 -15 -21 -3 -14 -10 -25 -14 -25 -5 0 -11 -13
-15 -30 -4 -16 -11 -30 -16 -30 -5 0 -9 -4 -9 -9 0 -5 -5 -22 -12 -38 -6 -15
-11 -31 -10 -35 1 -5 -3 -8 -8 -8 -6 0 -10 -11 -10 -25 0 -14 -5 -25 -11 -25
-6 0 -9 -7 -5 -15 3 -8 2 -15 -2 -15 -4 0 -8 -8 -9 -17 -1 -10 -10 -56 -20
-103 -10 -47 -18 -102 -18 -122 1 -21 -2 -38 -5 -38 -3 0 -5 -11 -5 -25 0 -14
4 -25 8 -25 4 0 3 -8 -2 -18 -5 -10 -6 -24 -1 -31 4 -8 4 -26 0 -41 -4 -15 -3
-34 2 -43 5 -10 6 -17 2 -17 -3 0 -1 -7 6 -15 10 -12 10 -15 0 -15 -9 0 -9 -4
-3 -12 6 -7 9 -21 8 -30 -2 -10 0 -18 4 -18 6 0 11 -25 14 -67 0 -7 4 -13 8
-13 4 0 6 -9 4 -20 -2 -11 0 -20 6 -20 5 0 8 -3 7 -7 -2 -13 14 -67 24 -80 5
-7 7 -17 4 -22 -4 -5 -2 -12 3 -16 5 -3 22 -30 37 -60 14 -30 31 -55 36 -55 5
0 7 -4 3 -9 -3 -5 2 -16 10 -24 8 -9 15 -23 15 -32 0 -9 5 -13 10 -10 6 3 10
0 10 -8 0 -8 10 -22 23 -31 12 -9 15 -14 7 -10 -16 8 2 -13 104 -116 73 -75
123 -116 137 -112 5 1 8 -4 7 -10 -2 -7 3 -12 10 -10 6 1 12 -3 12 -10 0 -6 3
-8 7 -5 3 4 13 -2 20 -13 8 -11 19 -18 24 -15 5 4 9 1 9 -5 0 -6 4 -9 9 -6 5
4 11 3 13 -1 1 -5 26 -19 53 -32 28 -14 59 -32 69 -40 17 -14 18 -14 11 -1 -8
13 -7 13 10 0 10 -8 19 -14 19 -12 1 2 9 1 19 -2 28 -9 41 -13 50 -15 4 0 23
-8 43 -16 43 -18 47 -18 39 -5 -3 5 7 3 21 -5 15 -8 31 -12 36 -9 4 3 14 2 21
-3 12 -8 22 -9 86 -12 19 0 32 -3 30 -5 -4 -3 -115 -18 -151 -19 -10 -1 -18
-4 -18 -7 0 -4 -6 -7 -12 -7 -28 -1 -70 -12 -96 -26 -16 -7 -36 -13 -45 -11
-9 1 -17 -2 -17 -7 0 -5 -9 -9 -20 -9 -11 0 -20 -5 -20 -12 0 -6 -3 -8 -7 -5
-3 4 -12 2 -20 -4 -7 -6 -13 -8 -13 -5 0 4 -7 0 -16 -8 -8 -9 -20 -14 -25 -11
-5 4 -9 1 -9 -4 0 -6 -7 -11 -15 -11 -8 0 -24 -9 -34 -19 -11 -11 -22 -17 -25
-14 -3 4 -6 1 -6 -5 0 -7 -7 -12 -15 -12 -8 0 -15 -4 -15 -10 0 -5 -6 -10 -14
-10 -8 0 -17 -7 -20 -16 -4 -9 -9 -14 -12 -11 -13 13 -214 -189 -214 -216 0
-6 -3 -7 -7 -3 -4 3 -15 -12 -25 -34 -11 -23 -26 -44 -33 -47 -8 -3 -12 -9 -9
-14 3 -5 0 -9 -7 -9 -7 0 -9 -3 -6 -7 4 -3 -4 -21 -18 -38 -13 -18 -21 -36
-17 -40 4 -3 0 -12 -8 -18 -8 -7 -16 -17 -17 -22 -1 -6 -14 -41 -28 -79 -14
-38 -25 -77 -25 -87 0 -11 -4 -19 -9 -19 -5 0 -8 -8 -6 -17 1 -10 -1 -28 -6
-40 -30 -81 -27 -424 4 -462 10 -12 9 -13 -3 -6 -13 8 -13 6 -1 -8 7 -9 11
-24 7 -32 -3 -8 -1 -15 5 -15 6 0 9 -7 6 -15 -4 -8 -2 -17 4 -20 5 -4 7 -10 4
-15 -3 -5 -1 -11 5 -15 6 -4 8 -11 4 -16 -3 -6 1 -18 9 -27 9 -9 16 -20 17
-24 1 -14 12 -43 28 -78 9 -19 15 -38 14 -42 -1 -5 3 -8 8 -8 6 0 17 -18 26
-40 9 -22 20 -40 24 -40 5 0 11 -8 14 -17 3 -10 17 -30 30 -44 14 -15 22 -29
19 -33 -3 -3 2 -8 11 -12 9 -3 16 -12 16 -20 0 -8 7 -14 15 -14 8 0 15 -4 15
-8 0 -14 36 -52 49 -52 7 0 10 -3 8 -7 -3 -5 21 -29 53 -54 33 -26 56 -50 52
-54 -4 -4 -2 -6 3 -4 14 3 65 -22 65 -33 0 -4 6 -8 13 -8 7 0 23 -9 35 -20 12
-12 22 -18 22 -15 0 8 63 -27 72 -40 4 -5 8 -6 8 -2 0 4 10 2 23 -5 12 -7 24
-13 27 -14 53 -13 100 -30 100 -35 0 -5 9 -6 20 -4 11 2 22 0 25 -5 3 -5 14
-7 25 -5 11 2 20 0 20 -5 0 -5 8 -8 18 -8 9 0 40 -3 67 -7 28 -4 55 -7 62 -8
7 0 10 -3 8 -7 -2 -3 -26 -5 -54 -5 -28 0 -51 -3 -51 -7 0 -5 -11 -6 -25 -4
-14 3 -25 0 -25 -6 0 -5 -7 -8 -15 -5 -8 4 -17 2 -20 -3 -3 -5 -12 -7 -20 -3
-8 3 -15 1 -15 -5 0 -5 -10 -9 -22 -8 -13 1 -26 -2 -29 -7 -3 -5 -12 -9 -20
-11 -29 -5 -89 -30 -89 -38 0 -4 -7 -5 -15 -2 -8 4 -15 1 -15 -6 0 -6 -4 -9
-9 -6 -5 3 -14 -1 -21 -9 -7 -8 -16 -12 -21 -9 -5 3 -9 0 -9 -5 0 -6 -7 -11
-15 -11 -8 0 -15 -4 -15 -9 0 -5 -14 -12 -30 -16 -17 -4 -28 -10 -25 -15 3 -5
-4 -11 -15 -15 -11 -3 -20 -11 -20 -16 0 -6 -4 -7 -10 -4 -5 3 -10 1 -10 -4 0
-6 -7 -11 -16 -11 -8 0 -12 -5 -9 -10 3 -5 2 -10 -3 -10 -5 0 -28 -18 -52 -40
-24 -22 -48 -40 -53 -40 -6 0 -8 -3 -5 -6 3 -3 -12 -23 -34 -45 -22 -21 -37
-39 -33 -39 3 0 -5 -11 -19 -23 -14 -13 -23 -27 -19 -30 3 -4 2 -7 -3 -7 -5 0
-20 -20 -34 -44 -13 -25 -27 -43 -30 -41 -3 2 -7 -6 -7 -18 -1 -12 -10 -27
-19 -34 -10 -7 -14 -13 -9 -13 4 0 0 -10 -11 -22 -10 -12 -13 -18 -7 -14 9 5
11 2 7 -8 -3 -9 -11 -16 -17 -16 -6 0 -7 -3 -4 -6 3 -4 1 -16 -5 -28 -12 -21
-18 -41 -20 -63 -1 -7 -4 -13 -8 -13 -4 0 -7 -6 -8 -12 0 -7 -4 -26 -7 -43 -4
-16 -8 -34 -9 -40 -1 -5 -4 -14 -7 -20 -3 -5 -7 -28 -8 -50 -2 -22 -7 -46 -13
-53 -8 -8 -7 -12 3 -12 11 0 11 -2 -1 -10 -11 -7 -11 -10 -2 -10 8 0 10 -5 6
-12 -11 -17 -11 -168 -1 -175 4 -2 4 -10 0 -16 -10 -17 -11 -47 -1 -41 4 3 8
-11 8 -31 0 -20 5 -46 11 -57 9 -16 8 -19 -3 -12 -8 5 -6 -3 6 -20 11 -17 13
-25 5 -20 -12 6 -12 5 0 -9 7 -9 10 -17 7 -17 -4 0 -2 -9 4 -21 11 -20 21 -53
22 -76 1 -7 5 -13 10 -13 5 0 6 -5 3 -10 -3 -6 -1 -10 4 -10 6 0 11 -7 11 -15
0 -9 7 -27 16 -40 9 -14 12 -25 8 -25 -5 0 -4 -4 1 -8 6 -4 19 -25 30 -47 11
-22 22 -42 25 -45 3 -3 18 -25 35 -50 16 -25 42 -57 57 -72 15 -16 24 -28 20
-28 -4 0 1 -5 11 -11 9 -5 17 -18 17 -27 0 -15 2 -15 10 -2 7 10 10 11 10 2 0
-16 54 -72 69 -72 6 0 11 -7 11 -16 0 -8 4 -12 10 -9 5 3 15 -3 22 -15 7 -11
18 -20 25 -20 7 0 13 -4 13 -10 0 -5 7 -10 15 -10 8 0 15 -4 15 -9 0 -5 9 -13
20 -16 11 -3 26 -12 33 -18 21 -19 55 -37 72 -37 8 0 15 -4 15 -9 0 -5 10 -12
22 -16 13 -4 25 -8 28 -9 40 -18 64 -26 76 -26 8 0 14 -5 14 -10 0 -6 3 -9 7
-8 16 4 83 -13 79 -20 -2 -4 13 -7 35 -6 21 0 39 -2 39 -6 0 -3 10 -7 23 -8
12 -1 33 -3 47 -4 14 -2 28 1 32 7 5 6 8 5 8 -3 0 -17 188 -15 209 2 11 8 13
8 8 -1 -6 -9 3 -10 30 -7 21 3 45 8 53 11 18 7 34 10 78 14 17 2 32 7 32 12 0
5 7 7 15 3 8 -3 15 0 15 6 0 6 3 9 6 5 3 -3 26 3 50 13 24 11 45 18 47 17 5
-4 157 77 157 84 0 5 6 6 14 3 7 -3 16 2 20 11 3 9 10 14 15 10 6 -3 13 1 18
8 4 7 26 26 48 42 22 16 55 44 73 62 18 18 38 33 43 33 6 0 7 5 4 10 -3 6 1
10 9 10 9 0 15 3 14 8 -2 4 6 16 17 28 31 32 65 74 60 74 -2 0 9 14 25 32 16
17 27 35 24 40 -3 4 0 8 6 8 6 0 8 5 5 10 -3 6 -2 10 3 10 7 0 55 82 58 99 2
17 20 48 33 59 9 8 10 11 4 7 -17 -8 -16 1 3 30 9 13 13 29 9 35 -3 5 -1 10 5
10 7 0 10 7 6 15 -3 8 -1 15 5 15 6 0 7 4 4 10 -3 5 -3 10 2 10 7 0 10 15 15
92 1 15 6 24 10 22 4 -3 8 5 8 18 -1 78 9 258 14 267 3 5 0 12 -6 14 -10 4 -9
8 2 16 12 8 12 11 1 11 -10 0 -11 3 -2 14 9 11 9 15 -1 19 -10 4 -10 8 2 16
12 8 12 11 1 11 -10 0 -11 3 -2 14 9 11 9 15 -1 19 -10 4 -10 8 2 16 12 8 12
11 1 11 -10 0 -11 3 -2 14 9 11 9 15 -1 19 -10 4 -10 8 2 16 12 8 12 11 1 11
-10 0 -11 3 -2 14 9 11 9 15 -1 19 -10 4 -10 8 2 16 8 6 11 11 5 11 -5 0 -10
21 -10 47 0 27 5 51 10 55 7 5 6 8 -1 8 -11 0 -11 51 1 69 3 6 3 11 -2 11 -12
0 -10 104 2 112 7 5 7 8 0 8 -11 0 -12 190 -1 208 3 6 0 13 -6 15 -10 4 -9 8
2 16 12 8 12 11 1 11 -10 0 -11 3 -2 14 9 11 9 15 -1 19 -10 4 -10 8 2 16 12
8 12 11 1 11 -11 0 -11 3 -1 15 7 8 9 15 4 15 -10 0 -10 172 0 188 3 6 0 13
-6 15 -10 4 -9 8 2 16 12 8 12 11 1 11 -10 0 -11 3 -2 14 9 11 9 15 -1 19 -10
4 -10 8 2 16 12 8 12 11 1 11 -11 0 -11 3 -1 15 7 8 8 15 4 15 -13 0 -11 83 1
92 7 5 6 8 -1 8 -11 0 -11 51 1 69 3 6 3 11 -2 11 -12 0 -10 104 2 112 7 5 7
8 0 8 -11 0 -12 110 -1 128 3 5 0 13 -6 15 -10 4 -9 8 2 16 12 8 12 11 1 11
-10 0 -11 3 -2 14 9 11 9 15 -1 19 -10 4 -10 8 2 16 12 8 12 11 1 11 -10 0
-11 3 -2 14 9 11 9 15 -1 19 -10 4 -10 8 2 16 12 8 12 11 1 11 -10 0 -11 3 -2
14 9 11 9 15 -1 19 -10 4 -10 8 2 16 12 8 12 11 1 11 -10 0 -11 3 -2 14 9 11
9 15 -1 19 -10 4 -10 8 2 16 12 8 12 11 1 11 -10 0 -11 3 -2 14 9 11 9 15 -1
19 -10 4 -10 8 2 16 13 9 13 11 1 11 -12 0 -12 3 -3 12 15 15 16 32 2 23 -5
-3 -10 -2 -10 3 0 6 6 12 13 15 9 3 14 -4 15 -22 1 -14 3 -37 5 -51 3 -14 5
-33 6 -43 0 -10 5 -15 11 -12 6 3 7 -1 4 -10 -4 -8 -1 -22 6 -30 6 -8 9 -18 6
-23 -3 -5 1 -20 9 -35 7 -14 11 -28 7 -31 -3 -3 0 -6 6 -6 7 0 11 -3 10 -7 -1
-5 7 -26 17 -48 10 -22 17 -46 16 -54 -1 -7 2 -10 8 -7 6 4 13 -5 17 -19 3
-14 10 -25 16 -25 5 0 6 -5 3 -10 -3 -5 -1 -10 4 -10 6 0 11 -7 11 -15 0 -8 5
-15 10 -15 6 0 10 -5 10 -10 0 -11 10 -25 48 -65 13 -14 20 -25 16 -25 -4 0 7
-14 25 -30 17 -17 31 -35 31 -40 0 -6 3 -10 8 -10 4 0 34 -25 67 -55 33 -30
66 -55 73 -55 7 0 10 -4 7 -10 -3 -5 0 -10 8 -10 8 0 22 -9 32 -20 10 -11 22
-17 26 -14 5 3 9 1 9 -4 0 -6 11 -13 25 -16 14 -4 23 -11 20 -17 -4 -5 -3 -9
2 -8 18 3 34 -1 30 -8 -3 -5 7 -9 21 -10 15 0 28 -6 30 -12 2 -6 10 -11 18
-11 8 0 29 -8 47 -17 18 -9 41 -18 52 -20 11 -2 27 -6 35 -10 19 -8 39 -12 68
-15 12 -1 22 -6 22 -10 0 -4 8 -7 18 -7 9 0 42 -3 72 -6 85 -10 280 -11 280
-1 0 5 6 3 14 -3 9 -7 15 -8 18 -2 1 6 22 11 46 12 23 2 42 7 42 13 0 5 3 7 6
4 3 -4 35 2 70 12 35 9 64 15 64 11 0 -3 4 -1 8 5 8 11 103 50 115 46 4 -1 7
2 7 7 0 5 20 17 44 27 24 10 42 22 40 26 -3 5 3 8 13 8 10 0 29 10 43 23 14
13 33 26 43 30 10 4 15 11 12 17 -4 6 1 7 11 3 12 -4 15 -3 10 5 -4 7 -2 12 4
12 6 0 24 13 40 30 16 17 34 30 40 30 6 0 9 4 6 8 -3 5 6 15 19 22 13 7 22 17
19 22 -3 4 -1 8 4 8 6 0 27 24 48 52 20 29 41 55 46 56 4 2 8 10 8 17 0 7 7
15 15 19 8 3 15 15 15 26 0 11 4 20 8 20 5 0 19 25 32 55 13 30 27 52 31 49 5
-3 6 2 3 10 -3 9 -2 16 3 16 5 0 10 6 10 13 1 20 8 42 15 48 5 3 9 17 10 32 1
15 6 27 10 27 4 0 5 9 3 20 -2 11 0 20 5 20 5 0 9 8 8 18 0 9 3 28 7 42 4 14
8 37 9 53 0 15 5 27 11 27 5 0 3 5 -5 10 -10 6 -11 10 -2 10 6 0 12 7 12 16 0
9 -5 12 -12 8 -9 -6 -9 -3 0 9 8 9 11 21 7 27 -3 5 -1 10 5 10 7 0 8 6 1 18
-5 10 -6 24 -1 33 5 8 5 21 0 29 -4 7 -4 24 1 37 5 12 5 23 1 23 -4 0 -8 19
-9 43 -1 23 -4 53 -6 67 -15 86 -19 107 -24 120 -3 8 -8 24 -10 34 -2 11 -10
33 -18 48 -9 19 -10 26 -2 21 7 -3 5 2 -4 13 -9 10 -19 31 -23 46 -3 15 -13
34 -22 42 -8 9 -13 20 -10 25 4 5 -1 16 -9 24 -8 9 -15 21 -15 27 0 6 -6 8
-12 4 -7 -4 -10 -4 -6 1 8 9 -22 65 -35 65 -4 0 -6 4 -3 9 3 5 -1 11 -9 15 -8
3 -15 12 -15 21 0 8 -4 15 -10 15 -5 0 -10 7 -10 16 0 8 -4 12 -10 9 -5 -3
-10 -1 -10 6 0 6 -18 29 -40 51 -22 22 -40 45 -40 50 0 5 -4 6 -10 3 -5 -3
-10 2 -10 11 0 10 -3 14 -6 11 -4 -3 -20 8 -35 24 -16 17 -29 27 -29 23 0 -5
-7 0 -15 10 -8 11 -15 17 -15 13 0 -4 -9 1 -19 11 -38 34 -49 41 -55 35 -3 -4
-6 -1 -6 6 0 7 -4 9 -10 6 -5 -3 -10 -2 -10 3 0 9 -79 51 -97 53 -5 0 -16 8
-25 16 -10 9 -18 13 -18 10 0 -3 -12 0 -27 8 -15 8 -30 12 -35 9 -4 -3 -8 -1
-8 4 0 8 -33 19 -77 24 -7 1 -13 6 -13 11 0 5 -7 6 -16 3 -9 -4 -24 -1 -32 6
-13 11 -14 11 -7 -2 7 -12 6 -13 -7 -3 -8 7 -38 14 -66 15 -29 1 -52 6 -52 11
0 4 -4 6 -9 2 -5 -3 -12 -1 -15 4 -3 5 8 7 24 6 17 -1 30 2 30 9 0 6 4 5 9 -3
7 -11 13 -12 23 -4 7 6 24 13 38 15 14 1 28 8 32 13 5 6 8 6 8 -2 0 -6 9 -9
20 -6 11 3 20 8 20 12 0 6 17 10 58 13 6 1 12 5 12 10 0 5 4 7 9 3 5 -3 16 2
24 10 12 11 17 12 20 2 4 -9 6 -9 6 1 1 6 8 12 16 12 8 0 15 4 15 10 0 5 7 7
15 4 8 -4 15 -1 15 7 0 7 3 10 6 6 3 -3 24 5 45 19 21 13 39 21 39 17 0 -5 5
0 11 10 5 9 17 17 24 17 8 0 15 5 15 10 0 6 7 10 15 10 8 0 15 5 15 12 0 6 2
9 5 6 18 -18 285 256 285 292 0 6 4 10 9 10 5 0 11 8 15 18 5 17 26 52 36 62
9 9 62 120 65 138 2 9 4 19 5 22 1 3 2 8 1 13 0 4 4 7 10 7 5 0 8 4 4 9 -3 5
2 16 10 25 10 10 12 17 5 21 -8 5 -8 11 -1 19 6 7 8 16 4 19 -3 4 -1 7 5 7 6
0 9 13 7 30 -3 21 -1 28 7 24 7 -5 9 0 6 14 -4 12 -2 25 3 28 5 3 7 10 3 15
-3 5 -1 16 6 24 7 9 8 15 0 20 -7 4 -7 12 0 26 8 14 7 19 -2 19 -8 0 -9 3 -3
8 12 8 14 167 2 178 -4 4 -2 13 4 21 8 9 8 13 0 13 -6 0 -11 10 -11 23 0 48
-4 77 -11 77 -3 0 -6 8 -6 18 1 22 -20 102 -34 125 -5 10 -7 22 -4 27 4 6 1
10 -5 10 -6 0 -8 5 -5 10 3 6 1 10 -4 10 -6 0 -11 9 -11 20 0 11 -4 20 -10 20
-5 0 -9 3 -8 8 3 12 -25 82 -34 82 -4 0 -8 7 -8 15 0 8 -4 15 -10 15 -5 0 -10
5 -10 11 0 10 -52 88 -86 129 -37 44 -176 180 -184 180 -6 0 -19 8 -29 18 -36
32 -50 42 -76 54 -14 6 -25 15 -25 20 0 4 -7 8 -15 8 -8 0 -15 5 -15 11 0 5
-5 7 -10 4 -6 -3 -17 1 -26 9 -9 9 -20 14 -25 11 -5 -4 -9 -1 -9 5 0 6 -4 8
-10 5 -5 -3 -10 -1 -10 4 0 6 -9 11 -19 11 -11 0 -23 5 -26 10 -4 6 -10 8 -15
5 -5 -3 -11 -1 -15 5 -4 6 -11 8 -16 5 -5 -4 -9 -1 -9 5 0 6 -11 8 -25 6 -14
-3 -23 -1 -20 4 5 8 -89 27 -107 22 -5 -1 -8 2 -8 7 0 5 -8 8 -17 7 -10 -2
-30 0 -44 4 -17 5 -32 4 -39 -3 -10 -9 -11 -9 -6 1 6 10 -251 12 -1293 12
-842 -1 -1301 -4 -1301 -11z m1566 -2324 c45 -1 70 3 67 8 -3 6 -1 7 5 3 20
-12 51 -15 57 -5 4 5 12 6 18 2 17 -11 149 -11 171 0 11 5 16 5 13 0 -7 -12
175 -9 193 2 8 5 11 4 6 -3 -7 -12 61 -11 81 1 6 4 14 4 16 0 3 -5 42 -8 86
-7 45 0 84 -2 86 -6 2 -3 -6 -7 -18 -7 -73 -5 -87 -7 -87 -14 0 -4 -9 -5 -20
-2 -11 3 -20 1 -20 -4 0 -5 -8 -9 -17 -10 -26 -1 -61 -11 -76 -20 -6 -4 -20
-9 -29 -10 -18 -3 -169 -73 -178 -83 -3 -3 -16 -14 -30 -25 l-25 -20 15 20 c8
11 -2 5 -21 -13 -19 -18 -38 -30 -41 -26 -4 3 -11 -4 -18 -15 -6 -12 -15 -21
-21 -21 -6 0 -23 -12 -37 -28 -15 -15 -42 -40 -60 -55 -19 -15 -31 -27 -28
-27 3 0 -2 -8 -11 -18 -10 -11 -22 -17 -27 -14 -5 3 -6 0 -3 -5 4 -6 -7 -24
-23 -42 -17 -17 -30 -35 -30 -41 0 -5 -4 -10 -10 -10 -5 0 -10 -7 -10 -15 0
-7 -6 -18 -13 -22 -26 -17 -143 -274 -130 -287 4 -3 1 -6 -6 -6 -9 0 -12 -9
-9 -25 3 -13 1 -22 -3 -19 -5 3 -9 -3 -10 -13 0 -10 -2 -27 -5 -38 -2 -11 -5
-34 -7 -51 -1 -22 -6 -30 -15 -26 -11 4 -11 6 0 13 10 7 10 9 -2 9 -13 0 -13
1 0 10 8 5 10 10 4 10 -13 0 -13 42 1 52 7 5 7 8 0 8 -11 0 -12 190 -1 208 3
6 0 13 -6 15 -10 4 -9 8 2 16 12 8 12 11 1 11 -10 0 -11 3 -2 14 9 11 9 15 -1
19 -10 4 -10 8 2 16 12 8 12 11 1 11 -11 0 -11 3 -1 15 7 8 9 15 4 15 -10 0
-10 172 0 188 3 6 0 13 -6 15 -10 4 -9 8 2 16 12 8 12 11 1 11 -10 0 -11 3 -2
14 9 11 9 15 -1 19 -10 4 -10 8 2 16 12 8 12 11 1 11 -11 0 -11 3 -1 15 7 8 9
15 4 15 -10 0 -10 172 0 188 3 6 0 13 -6 16 -11 5 -11 7 0 12 6 3 10 9 7 14
-2 4 27 6 65 5 43 -1 67 2 63 8 -4 6 -1 7 7 2 8 -5 46 -9 86 -10z m-222 -1021
c3 -8 2 -12 -4 -9 -6 3 -10 10 -10 16 0 14 7 11 14 -7z m4 -279 c-3 -3 -9 2
-12 12 -6 14 -5 15 5 6 7 -7 10 -15 7 -18z"/>
</g>
</svg>
